# xmcd
# Track frame offsets:
# 150
# 23412
# 39497
# 57837
# 83235
# 96145
#
# Disc length: 1498 seconds
# Revision: 0
# Processed by: cddbd v1.5.1PL0 Copyright (c) Steve Scherf et al.
# Submitted via: VisiTrax 2.9.10.220 - For more info visit www.synapsa.com
#
DISCID=3b05d806
DTITLE=Earth Wind and Fire - Earth Wind and Fire "Let's Groove"
DYEAR=1997
DGENRE=R and B
TTITLE0=Keep Your Head In The Sky
TTITLE1=In The Stone
TTITLE2=Got To Get You Into My Life
TTITLE3=Let's Groove
TTITLE4=Shinning Star
TTITLE5=September
EXTD=6 pack - Sony Music Special Products 1997
EXTT0=
EXTT1=
EXTT2=
EXTT3=
EXTT4=
EXTT5=
PLAYORDER=
